<svg width="2806" height="2773" viewBox="0 0 2806 2773" fill="none" xmlns="http://www.w3.org/2000/svg">
<g clip-path="url(#clip0_7_5)">
<path d="M2806 0L2628.56 26.8057C2451.58 54.0735 2096.71 107.685 2046.27 162.683C1995.84 217.218 2249.84 272.678 2167.77 327.214C2086.16 382.212 1668.93 435.823 1643.71 489.897C1618.49 543.97 1985.29 597.582 2104.5 651.655C2223.71 705.729 2095.33 759.34 2042.6 814.338C1989.88 868.873 2012.8 924.333 2137.97 978.869C2263.6 1033.87 2491.01 1087.48 2442.87 1141.55C2394.73 1195.63 2071.03 1249.24 1979.33 1304.23C1887.63 1358.77 2027.93 1414.23 1923.39 1468.77C1818.86 1523.76 1468.57 1577.37 1499.28 1631.45C1530 1685.52 1940.82 1739.13 2057.73 1794.13C2174.65 1848.67 1997.67 1904.13 1966.03 1958.66C1934.86 2013.66 2049.48 2067.27 1927.06 2121.35C1805.1 2175.42 1445.64 2229.03 1273.25 2283.1C1100.39 2337.18 1114.15 2390.79 1143.95 2445.79C1173.75 2500.32 1219.6 2555.78 1436.47 2610.32C1653.8 2665.32 2041.69 2718.93 2236.09 2746.19L2430.03 2773H0V2746.19C0 2718.93 0 2665.32 0 2610.32C0 2555.78 0 2500.32 0 2445.79C0 2390.79 0 2337.18 0 2283.1C0 2229.03 0 2175.42 0 2121.35C0 2067.27 0 2013.66 0 1958.66C0 1904.13 0 1848.67 0 1794.13C0 1739.13 0 1685.52 0 1631.45C0 1577.37 0 1523.76 0 1468.77C0 1414.23 0 1358.77 0 1304.23C0 1249.24 0 1195.63 0 1141.55C0 1087.48 0 1033.87 0 978.869C0 924.333 0 868.873 0 814.338C0 759.34 0 705.729 0 651.655C0 597.582 0 543.97 0 489.897C0 435.823 0 382.212 0 327.214C0 272.678 0 217.218 0 162.683C0 107.685 0 54.0735 0 26.8057V0H2806Z" fill="url(#paint0_linear_7_5)"/>
</g>
<defs>
<linearGradient id="paint0_linear_7_5" x1="1403" y1="0" x2="1403" y2="2773" gradientUnits="userSpaceOnUse">
<stop stop-color="#4B77BA"/>
<stop offset="1" stop-color="#030D1D"/>
</linearGradient>
<clipPath id="clip0_7_5">
<rect width="2806" height="2773" fill="white"/>
</clipPath>
</defs>
</svg>
